<svg viewBox="0 0 27 27" fill="none" xmlns="http://www.w3.org/2000/svg" id="Github--Streamline-Unicons" height="27" width="27">
  <desc>
    Github Streamline Icon: https://streamlinehq.com
  </desc>
  <path d="M13.4998875 0.596475c-3.1414500000000003 0.00011250000000000001 -6.180412499999999 1.1181375 -8.57295 3.153825C2.5342875 5.785987499999999 0.9440999999999999 8.6067 0.44088750000000004 11.707650000000001c-0.5032125 3.1008375 0.1134 6.2796375 1.739475 8.9676 1.6259625 2.6877375 4.155412500000001 4.709362499999999 7.13565 5.7029625 0.6615 0.1157625 0.9095625 -0.28113750000000004 0.9095625 -0.628425 0 -0.3142125 -0.0165375 -1.3560750000000001 -0.0165375 -2.4640875 -3.3240374999999998 0.6118875 -4.1839875 -0.810225 -4.4485875 -1.5544125 -0.293625 -0.7237125 -0.7590374999999999 -1.365075 -1.3560750000000001 -1.8687375 -0.46305 -0.2480625 -1.1245500000000002 -0.85995 -0.0165375 -0.8764875 0.4231125 0.0459 0.8287875 0.1931625 1.1829375000000002 0.4291875 0.3540375 0.23602499999999998 0.6460875 0.5540625 0.851175 0.9268875 0.1809 0.3250125 0.4242375 0.6112125 0.71595 0.8420625 0.2917125 0.23085 0.6261749999999999 0.4019625 0.9841500000000001 0.5032125 0.357975 0.1013625 0.732375 0.13117499999999999 1.101825 0.0876375s0.72675 -0.159525 1.0512 -0.3414375c0.0572625 -0.6726375 0.35707500000000003 -1.3015125 0.8435250000000001 -1.7695125 -2.943675 -0.33075 -6.0196499999999995 -1.4718375 -6.0196499999999995 -6.5323125 -0.018562500000000003 -1.3147875 0.4665375 -2.5869375000000003 1.3560750000000001 -3.55545 -0.4044375 -1.142775 -0.3571875 -2.396925 0.1323 -3.50595 0 0 1.1079 -0.34728749999999997 3.63825 1.3560750000000001 2.164725 -0.59535 4.45005 -0.59535 6.6148875 0 2.5302374999999997 -1.7199 3.63825 -1.3560750000000001 3.63825 -1.3560750000000001 0.48948749999999996 1.109025 0.53685 2.363175 0.1323 3.50595 0.8920125000000001 0.966825 1.3777875 2.2402125 1.3560750000000001 3.55545 0 5.0770125 -3.0925124999999998 6.2015625000000005 -6.0361875 6.5323125 0.31567500000000004 0.31994999999999996 0.5587875 0.70425 0.7129125000000001 1.1264625000000001 0.154125 0.4224375 0.21555 0.873 0.18011249999999998 1.3210875 0 1.769625 -0.0165375 3.191625 -0.0165375 3.6381375 0 0.34728749999999997 0.2480625 0.760725 0.9095625 0.628425 2.97495 -1.0015875 5.4970875 -3.0279375 7.1161875 -5.7171375 1.6192125 -2.6893124999999998 2.2298625 -5.8665375 1.7231625000000002 -8.96445 -0.5067 -3.0978 -2.0977875 -5.9148 -4.489425 -7.9480125C19.67535 1.7152874999999999 16.638975000000002 0.5981624999999999 13.4998875 0.596475Z" fill="#000000" stroke-width="1.125"></path>
</svg>