<svg viewBox="0 0 27 27" fill="none" xmlns="http://www.w3.org/2000/svg" id="Linkedin--Streamline-Unicons" height="27" width="27">
  <desc>
    Linkedin Streamline Icon: https://streamlinehq.com
  </desc>
  <path d="M24.705675 0.270225H2.294325C2.0424374999999997 0.266625 1.7922375 0.31286250000000004 1.558125 0.4060125 1.324125 0.49927499999999997 1.1107125 0.6376499999999999 0.9300375 0.8132625 0.749475 0.9889875 0.6052500000000001 1.1984625 0.5056875000000001 1.429875c-0.099675 0.2314125 -0.15266249999999998 0.4802625 -0.15615 0.7321500000000001v22.67595c0.0034874999999999997 0.2518875 0.056475000000000004 0.5007375 0.15615 0.7321500000000001s0.2437875 0.44088750000000004 0.42435 0.6166125c0.180675 0.17572500000000002 0.3940875 0.3141 0.6280875 0.40725 0.2341125 0.0932625 0.4843125 0.1393875 0.7362 0.1357875h22.41135c0.2518875 0.0036000000000000003 0.5020875 -0.042525 0.7360875 -0.1357875 0.234225 -0.09315 0.447525 -0.231525 0.6282 -0.40725 0.18056250000000001 -0.17572500000000002 0.3247875 -0.38531250000000006 0.42435 -0.6166125 0.099675 -0.2314125 0.15266249999999998 -0.4802625 0.15615 -0.7321500000000001V2.162025c-0.0034874999999999997 -0.2518875 -0.056475000000000004 -0.500625 -0.15615 -0.7321500000000001 -0.0995625 -0.2314125 -0.2437875 -0.44088750000000004 -0.42435 -0.6166125 -0.180675 -0.17561249999999998 -0.393975 -0.3141 -0.6282 -0.40725 -0.23399999999999999 -0.09315 -0.4842 -0.1393875 -0.7360875 -0.1357875ZM8.327137500000001 22.4168625h-3.969V10.5100875h3.969v11.906775ZM6.3426375 8.8430625c-0.5473125 0 -1.0722375 -0.21735000000000002 -1.45935 -0.6044625 -0.38699999999999996 -0.38699999999999996 -0.6044625 -0.911925 -0.6044625 -1.45935 0 -0.5473125 0.2174625 -1.0723500000000001 0.6044625 -1.45935 0.3871125 -0.3871125 0.9120375 -0.6044625 1.45935 -0.6044625 0.2907 -0.0329625 0.585 -0.0041625 0.8637750000000001 0.0844875 0.278775 0.08864999999999999 0.5356125 0.23523750000000002 0.75375 0.43008749999999996 0.21825 0.19485 0.3927375 0.43357500000000004 0.512325 0.7005375 0.119475 0.2669625 0.18135 0.5562 0.18135 0.8487 0 0.2925 -0.061875 0.5817375 -0.18135 0.8487 -0.11958750000000001 0.2669625 -0.29407500000000003 0.5056875000000001 -0.512325 0.7005375 -0.21813749999999998 0.19485 -0.47497500000000004 0.3414375 -0.75375 0.43008749999999996 -0.278775 0.0887625 -0.573075 0.1175625 -0.8637750000000001 0.08460000000000001ZM22.641750000000002 22.4168625h-3.9688874999999997v-6.39c0 -1.6007625 -0.5689125 -2.6458875 -2.0109375000000003 -2.6458875 -0.4462875 0.0032624999999999998 -0.8808750000000001 0.1432125 -1.24515 0.4010625s-0.6408 0.6211125000000001 -0.7922250000000001 1.0409625c-0.1036125 0.31094999999999995 -0.14850000000000002 0.6384375 -0.1323 0.9657v6.615H10.523249999999999V10.4968125h3.969v1.6801875000000002c0.36045000000000005 -0.6256125 0.884925 -1.1410875 1.5166125000000001 -1.4907374999999998 0.6319125 -0.34965 1.347075 -0.5203125000000001 2.06865 -0.4937625 2.646 0 4.5642375 1.7066249999999998 4.5642375 5.3713125v6.85305Z" fill="#000000" stroke-width="1.125"></path>
</svg>